<svg version="1.1" id="Layer_1" xmlns="http://www.w3.org/2000/svg" xmlns:xlink="http://www.w3.org/1999/xlink" x="0px" y="0px"
	 width="100%" viewBox="0 0 1184 864" enable-background="new 0 0 1184 864" xml:space="preserve">
<path fill="#5EFE6B" opacity="1.000000" stroke="none" 
	d="
M618.133057,396.053070 
	C620.530334,398.625214 622.795166,401.345001 625.401367,403.684387 
	C626.241394,404.438385 627.979065,404.197449 629.307739,404.401031 
	C642.231079,406.381531 655.530884,406.374603 667.743530,412.138580 
	C669.515686,412.974976 672.094788,412.034912 674.300659,412.029877 
	C689.622925,411.994843 704.954590,412.316467 720.264465,411.874207 
	C733.118225,411.502960 738.111389,417.323059 740.651367,428.268768 
	C748.454468,461.894897 755.714417,495.647369 763.576843,529.259216 
	C765.415649,537.120361 761.662537,542.973083 758.551575,549.178101 
	C758.013000,550.252319 755.328186,550.608276 753.611023,550.673706 
	C744.833191,551.008240 737.467163,545.913147 735.173706,537.238586 
	C729.003174,513.900696 723.181824,490.470734 717.155029,467.094574 
	C715.646667,461.243927 713.886108,455.458252 712.134888,448.919861 
	C712.676575,446.798309 713.324829,445.399628 714.330261,444.081512 
	C715.737061,446.530792 717.159546,448.806244 717.778931,451.282562 
	C724.515625,478.217743 731.120300,505.185944 737.775208,532.141663 
	C740.022400,541.243896 745.260376,544.779663 754.930176,543.609314 
	C754.506714,541.374084 754.150818,539.129333 753.651794,536.916809 
	C746.224854,503.988403 738.514832,471.120453 731.502380,438.104218 
	C729.455200,428.465485 724.331482,424.115784 713.939331,424.059235 
	C700.953796,423.988556 687.963867,424.205048 674.984131,423.919434 
	C670.915344,423.829926 669.542480,425.246796 669.578613,429.000000 
	C668.629456,428.998413 667.997314,428.996216 667.277771,428.567444 
	C667.190430,426.174683 667.190430,424.208527 667.190430,422.501160 
	C627.331970,430.868622 588.043762,431.828186 548.368164,422.616180 
	C547.681396,427.061615 543.908447,424.758911 540.917236,424.529419 
	C539.647217,422.956299 538.470337,421.708496 536.785217,419.921814 
	C539.209412,418.951843 541.132385,418.182404 543.240295,417.338959 
	C543.489807,416.031189 543.765503,414.586060 544.247375,412.783386 
	C544.960083,411.351746 545.834839,410.300598 545.903442,409.199188 
	C546.099976,406.044922 545.971680,402.870300 545.967285,399.703674 
	C545.953308,389.750092 545.952026,389.753113 536.334717,387.865784 
	C536.053589,387.810638 535.816406,387.531097 535.008179,386.982422 
	C535.008179,382.704163 535.136047,378.056458 534.949951,373.421387 
	C534.866577,371.345947 534.594299,369.064209 533.652893,367.272797 
	C528.565369,357.592377 523.154358,348.082428 518.020752,338.425568 
	C511.591461,326.331085 505.322937,314.151154 499.496704,301.987885 
	C501.026337,301.855011 502.044281,301.742340 503.399475,301.639893 
	C505.450684,304.793701 507.177124,307.930481 508.876404,311.081879 
	C518.000793,328.003387 527.107422,344.934479 536.263611,361.838715 
	C536.861267,362.942108 537.692322,364.558838 538.634399,364.730316 
	C544.029968,365.712311 549.491882,366.329315 555.412415,367.135712 
	C555.027893,365.201416 554.923279,364.051300 554.568542,362.984314 
	C549.197449,346.830200 543.830627,330.674408 538.380005,314.547028 
	C536.034485,307.607056 533.499390,300.731140 531.168152,293.522766 
	C532.521606,291.854431 533.757385,290.489441 535.248413,289.063416 
	C535.674072,289.042419 535.844482,289.082458 536.135986,289.409729 
	C536.492798,291.460510 536.728516,293.224091 536.888062,295.392487 
	C536.959167,296.771393 536.966980,297.792084 537.274170,298.712860 
	C544.355103,319.936920 551.501953,341.139069 558.541321,362.376862 
	C559.634338,365.674530 560.263489,369.125885 561.335754,373.422119 
	C557.622925,372.921112 555.019470,372.761810 552.506470,372.198639 
	C539.008972,369.173676 537.713135,369.915558 538.107971,380.826050 
	C538.119324,381.140442 538.315247,381.448120 538.427002,381.758972 
	C539.205505,382.018341 539.964050,382.403595 540.761414,382.518097 
	C553.552002,384.355133 566.349426,386.144501 579.140930,387.974976 
	C583.760071,388.635925 588.367859,389.376556 592.905640,390.365662 
	C590.776794,392.966156 592.304199,394.502716 593.967529,396.391174 
	C593.644958,398.566071 593.349915,400.353455 592.905212,402.447144 
	C590.750549,405.599243 588.745544,408.445038 586.740540,411.290833 
	C586.932861,411.912964 587.125244,412.535095 587.317566,413.157227 
	C597.210022,413.157227 607.102417,413.157227 617.090210,413.410034 
	C618.125977,413.164551 619.066406,412.666229 620.383423,412.088135 
	C624.231140,412.033051 624.607971,410.269104 622.990540,407.771301 
	C621.863525,406.030792 620.354797,404.537537 618.921509,402.823486 
	C618.555725,402.547913 618.286743,402.556274 617.658203,402.647705 
	C613.867798,402.328644 610.438782,402.100128 606.963257,401.562622 
	C607.942993,400.496704 608.960144,399.726929 609.998352,398.986511 
	C610.981079,398.285614 611.985779,397.615509 613.011353,396.600830 
	C613.710266,395.512512 614.378723,394.755249 615.282104,394.207642 
	C616.388977,394.962555 617.260986,395.507812 618.133057,396.053070 
M720.721436,417.305939 
	C719.538513,416.869995 718.358154,416.063080 717.172302,416.054840 
	C703.698853,415.961365 690.224548,415.974213 676.750671,416.021118 
	C675.854858,416.024231 674.960754,416.533508 674.065857,416.807343 
	C674.129089,417.210144 674.192261,417.612946 674.255493,418.015747 
	C689.851990,418.015747 705.448547,418.015747 721.256348,418.706604 
	C727.890381,420.655487 732.422607,424.662170 733.981201,431.623840 
	C739.628418,456.847870 745.291260,482.068420 750.939575,507.292145 
	C753.356689,518.086609 755.752930,528.885803 758.158630,539.682800 
	C758.702881,539.698059 759.247131,539.713318 759.791382,539.728516 
	C760.059326,537.162109 761.027222,534.437866 760.489746,532.052917 
	C752.862610,498.209259 745.037964,464.410065 737.245361,430.603760 
	C735.222656,421.828766 730.112793,417.899261 720.721436,417.305939 
M588.167419,417.035797 
	C583.972412,417.343231 582.590454,414.812012 582.752136,410.078552 
	C572.200073,411.951172 562.300110,413.708038 551.114929,415.692963 
	C568.105347,425.319885 644.763611,424.804688 663.776367,415.773956 
	C651.574219,413.659790 640.630737,411.763702 629.687256,409.867645 
	C629.854797,410.770264 630.022339,411.672882 630.189880,412.575500 
	C628.172119,414.070923 626.354431,416.204193 624.090332,416.914520 
	C620.556580,418.023132 616.720276,418.167206 612.933167,418.027618 
	C612.242798,417.472137 611.561035,416.452362 610.860535,416.439270 
	C607.250732,416.371704 603.626709,416.447968 600.029663,416.742554 
	C599.118408,416.817230 598.287659,417.874786 596.739014,418.674316 
	C594.828369,418.389618 592.917725,418.104889 590.859985,417.347260 
	C590.236145,417.243256 589.612366,417.139282 588.167419,417.035797 
M549.033203,408.931763 
	C549.064575,412.478455 551.070740,410.237061 552.316223,410.018280 
	C561.847351,408.344208 571.333069,406.343719 580.914551,405.048859 
	C586.942505,404.234222 589.385071,401.316711 587.696594,395.271606 
	C574.983826,393.556427 562.271118,391.841248 549.029785,390.054749 
	C549.029785,396.132080 549.029785,402.083557 549.033203,408.931763 
z"/>
<path fill="#5EFE6B" opacity="1.000000" stroke="none" 
	d="
M619.952698,703.834290 
	C613.682556,707.295288 607.169678,706.890442 600.738953,704.627869 
	C597.869446,703.618347 596.370422,703.884888 594.900269,706.760986 
	C594.164856,708.199890 591.795166,709.854370 590.357788,709.692871 
	C585.383301,709.133728 580.485779,707.854980 575.583923,706.740662 
	C575.085449,706.627319 574.373169,705.751770 574.402771,705.269531 
	C574.980652,695.873291 567.253296,696.517822 561.726318,695.135071 
	C540.267639,689.766235 518.722046,684.745056 497.218140,679.556030 
	C475.872833,674.405273 454.539154,669.206299 433.196167,664.045959 
	C432.730347,663.933350 432.213470,664.031860 431.752808,664.031860 
	C429.538544,668.878540 426.066772,670.502625 420.785492,669.234009 
	C419.032715,668.812866 417.291809,668.276489 415.512634,668.044189 
	C411.418060,667.509766 409.953522,664.891785 409.122253,661.185669 
	C408.792755,659.716614 407.147675,657.648438 405.845276,657.437805 
	C397.834473,656.142151 394.473969,650.543640 392.611328,643.350525 
	C394.007690,642.989685 395.000244,642.995605 396.306030,643.144653 
	C398.664246,647.338379 401.799713,649.945557 406.291687,651.008423 
	C421.928680,654.708496 437.554321,658.457092 453.171082,662.241821 
	C497.959778,673.096497 542.740540,683.984009 587.528259,694.842712 
	C594.427917,696.515564 601.347778,698.105225 609.004028,699.909058 
	C608.699158,695.727783 608.259583,692.336182 608.238525,688.941956 
	C608.157837,675.949585 608.129578,662.955566 608.276306,649.964294 
	C608.310608,646.922119 607.363464,645.529724 604.306885,644.967041 
	C598.833557,643.959351 593.440063,642.524536 588.001770,641.319519 
	C566.371338,636.526428 544.715393,631.846497 523.109375,626.946106 
	C501.674072,622.084412 480.258698,617.127136 458.894623,611.963318 
	C451.090302,610.076965 450.029297,608.282715 449.988922,600.241089 
	C449.720825,546.805054 449.382050,493.369293 449.234497,439.932953 
	C449.105713,393.292114 449.164825,346.650635 449.231079,300.009583 
	C449.239899,293.808350 449.739075,287.605316 450.123657,281.410095 
	C450.173737,280.602966 450.900482,279.837860 451.550720,279.226654 
	C452.538544,280.297699 453.289429,281.195343 453.969971,282.505249 
	C453.614624,285.016083 453.081238,287.114594 453.080383,289.213287 
	C453.038055,391.942963 453.040833,494.672668 453.041779,597.402344 
	C453.041840,603.268860 454.039307,603.977173 459.801208,602.710999 
	C467.326324,601.057251 474.904083,599.639771 482.417664,597.937500 
	C492.291351,595.700684 502.124634,593.285522 511.952454,591.291321 
	C511.390808,592.378723 510.646912,593.052612 510.366516,593.883057 
	C510.036987,594.858887 510.109863,595.970703 509.826172,597.357300 
	C509.125885,598.082886 508.657471,598.709900 508.082031,598.831848 
	C494.386108,601.732727 480.678711,604.579407 466.984589,607.433594 
	C473.263306,608.960938 479.458679,610.565918 485.699341,611.969849 
	C521.415161,620.004822 557.139343,628.002930 592.866455,635.987793 
	C601.908508,638.008667 610.808289,641.190857 620.332092,638.041321 
	C625.427185,636.356384 630.770569,635.422424 636.000732,634.561646 
	C635.993225,636.623352 635.987000,638.272949 635.787964,640.259216 
	C628.771667,642.334778 621.909180,643.941528 615.159180,645.929993 
	C613.890320,646.303833 612.190430,648.190552 612.175964,649.397034 
	C611.978638,665.843750 612.043152,682.293640 612.043152,699.134155 
	C615.276855,698.765869 618.140686,698.439758 620.908936,698.404907 
	C620.526428,700.408875 620.239563,702.121582 619.952698,703.834290 
M589.444580,701.965576 
	C585.406982,700.922729 581.369385,699.879944 576.657837,698.663025 
	C579.372192,702.926270 588.524353,705.358704 591.345398,703.252625 
	C590.982300,702.847168 590.619263,702.441650 589.444580,701.965576 
M415.953461,659.815552 
	C415.033295,659.635925 414.113159,659.456299 412.096527,659.062622 
	C417.262787,663.295837 423.768951,664.496216 426.620789,662.378784 
	C423.326691,661.568237 420.032593,660.757690 415.953461,659.815552 
z"/>
<path fill="#5EFE6B" opacity="1.000000" stroke="none" 
	d="
M678.992920,199.051483 
	C687.005249,199.049957 695.017639,199.048447 703.649719,199.424835 
	C708.350891,202.663345 717.811401,202.774445 721.012878,199.999390 
	C733.298706,200.005615 745.586304,200.129852 757.869080,199.940613 
	C761.213257,199.889069 762.982910,200.954575 764.047424,204.104843 
	C764.929504,206.715164 766.271240,209.210098 767.702393,211.579056 
	C768.491028,212.884338 769.830200,214.703262 771.013733,214.775497 
	C775.849854,215.070724 775.997253,218.223068 775.995605,221.734680 
	C775.989197,235.182907 776.002380,248.631119 775.585632,262.538208 
	C774.225037,262.998810 773.287048,263.000580 772.255127,262.542053 
	C772.183716,250.758682 772.111328,239.434357 772.263306,228.113037 
	C772.358032,221.054245 772.510071,221.058456 765.296692,221.044983 
	C728.328735,220.975937 691.360718,220.943848 654.393005,220.801331 
	C647.600037,220.775146 640.810852,220.187241 634.016174,220.061234 
	C626.739197,219.926285 619.457764,220.030807 612.123535,220.030807 
	C611.935791,223.085724 611.783936,225.556961 611.289673,228.029022 
	C610.034729,228.027466 609.122192,228.025085 608.122742,227.577118 
	C608.035889,224.867416 608.035889,222.603302 608.035889,219.993607 
	C594.600708,219.993607 581.801086,219.993607 568.700806,219.698517 
	C552.827209,219.283630 537.254150,219.153763 521.680847,219.084671 
	C521.120605,219.082169 520.557800,219.678726 519.529846,220.014526 
	C514.042725,220.019714 509.021881,220.006454 503.700470,219.698120 
	C497.636536,219.234253 491.872101,218.916397 486.110260,218.957382 
	C483.070923,218.979019 480.036041,219.626602 476.530823,220.009888 
	C458.176025,220.283951 440.283630,220.904892 422.405975,220.614456 
	C415.323608,220.499374 409.430420,220.981323 405.966125,227.710632 
	C405.366089,226.838028 404.809875,226.280289 404.253632,225.722549 
	C403.719360,226.425613 403.185059,227.128662 402.650787,227.831726 
	C403.415283,228.214767 404.179749,228.597809 404.859924,229.318268 
	C402.391296,232.519730 400.007019,235.383789 397.227478,238.212128 
	C395.299866,238.472336 393.767456,238.768280 392.235046,239.064224 
	C395.824066,233.886200 399.366241,228.674713 403.025665,223.546921 
	C404.450500,221.550415 405.966522,219.555923 407.753906,217.897873 
	C409.802063,215.997986 412.197968,214.472992 414.442780,212.785110 
	C414.729523,213.151093 415.016235,213.517075 415.302948,213.883072 
	C415.543976,213.687302 415.917633,213.538971 416.007050,213.288986 
	C421.129395,198.968979 421.127075,198.968155 436.580627,199.504837 
	C440.349945,203.082840 443.742157,202.818497 447.012512,199.166748 
	C458.026642,199.100815 469.040802,199.034882 480.652191,199.345108 
	C485.847382,199.838898 490.445282,199.956528 495.376526,200.279892 
	C499.336914,200.566040 503.502350,203.039047 506.014832,198.166626 
	C518.029968,198.100449 530.045166,198.034271 542.658813,198.360870 
	C548.505310,199.001892 553.758240,199.487137 558.998962,199.378983 
	C561.027893,199.337112 563.029175,197.951599 565.043030,197.178192 
	C585.709290,197.137924 606.375488,197.097672 627.666260,197.430634 
	C633.653748,200.672363 638.921875,200.748413 642.002075,198.001785 
	C650.016113,198.019150 658.030151,198.036514 666.647888,198.449097 
	C671.260864,201.747208 675.792969,201.827179 678.992920,199.051483 
M667.146301,216.797668 
	C673.587097,216.836746 680.031006,216.995911 686.466309,216.826920 
	C687.995300,216.786774 689.495422,215.647598 691.943848,214.962982 
	C715.757935,214.962982 739.571960,214.962982 764.157837,214.962982 
	C762.180298,211.798218 763.074829,207.273300 758.139832,206.836380 
	C753.360718,206.413269 748.557129,206.189163 743.759521,206.067352 
	C728.473633,205.679169 713.186218,205.341812 697.898071,205.054260 
	C676.117371,204.644562 654.334961,204.325531 632.554749,203.892197 
	C629.089172,203.823242 625.635925,203.244446 622.168945,203.108475 
	C618.564392,202.967117 614.949951,203.076950 611.039062,203.076950 
	C611.039062,205.210693 611.233276,206.874512 611.001831,208.476868 
	C610.365234,212.884842 612.063171,214.264053 616.517700,214.073227 
	C623.992920,213.752975 631.496887,214.104797 639.217468,214.887238 
	C640.597351,215.579681 641.967773,216.846344 643.358643,216.869110 
	C650.989685,216.994034 658.625793,216.814163 667.146301,216.797668 
M420.645172,212.615082 
	C419.060394,216.389252 421.345062,216.946167 424.262970,216.947189 
	C441.399628,216.953140 458.537292,217.034897 475.671539,216.832535 
	C477.464630,216.811340 479.237762,215.098404 481.939514,214.043808 
	C486.292267,214.090027 490.645020,214.136230 495.122467,214.942261 
	C496.622559,215.628433 498.119110,216.903320 499.623230,216.912262 
	C521.388062,217.041641 543.154419,217.064713 564.918396,216.878052 
	C566.620239,216.863464 568.307129,215.099579 570.928772,214.008072 
	C583.192078,214.008072 595.455444,214.008072 607.696838,214.008072 
	C607.696838,209.996490 607.696838,206.618195 607.696838,203.813141 
	C598.060120,203.813141 588.790955,203.749725 579.522888,203.823792 
	C531.611206,204.206650 483.699890,204.624741 435.788422,205.030075 
	C435.122528,205.035706 434.449097,204.971176 433.791840,205.047775 
	C428.618805,205.650650 422.807312,205.121628 420.645172,212.615082 
z"/>
<path fill="#5EFE6B" opacity="1.000000" stroke="none" 
	d="
M510.008209,597.023499 
	C510.109863,595.970703 510.036987,594.858887 510.366516,593.883057 
	C510.646912,593.052612 511.390808,592.378723 511.956543,590.859497 
	C512.128418,588.367859 512.273376,586.652222 512.540771,584.811890 
	C512.812317,584.505127 512.929321,584.304443 513.103394,583.755859 
	C514.194763,582.299683 515.197083,581.172913 516.372009,580.008911 
	C516.461243,579.646179 516.377747,579.320740 516.141602,578.706177 
	C515.674866,577.864990 515.360718,577.312927 514.981445,576.636108 
	C514.819031,576.349060 514.696777,576.208435 514.426392,575.781616 
	C514.210754,575.272888 514.118225,575.072144 513.917847,574.713013 
	C513.650024,574.353210 513.467041,574.175537 513.091064,573.677124 
	C512.261475,570.896240 511.601807,568.459839 511.223602,565.893677 
	C512.287231,565.509766 513.069397,565.255798 513.928162,565.214233 
	C514.004761,565.426636 514.043579,565.876587 514.129211,566.075928 
	C514.352112,566.532471 514.523193,566.764771 514.862976,567.289429 
	C515.320496,568.452271 515.643066,569.297852 516.028809,570.408813 
	C516.401245,571.110596 516.710632,571.547119 517.340820,572.080688 
	C520.106689,574.506836 522.551697,576.835815 524.976013,579.507629 
	C523.973938,580.887207 522.992432,581.924011 521.953552,582.743896 
	C521.276428,582.721313 520.656677,582.915527 519.900269,583.405090 
	C518.869263,584.646484 517.974915,585.592468 516.247131,587.420166 
	C521.434326,590.126160 525.952759,593.161316 530.919434,594.954956 
	C550.619507,602.069092 571.346802,603.805725 591.991699,604.798645 
	C617.459656,606.023499 642.828613,603.821777 667.886597,598.912109 
	C677.319824,597.063904 686.681396,594.764038 694.570190,587.812195 
	C693.533447,586.086670 692.572754,584.487671 691.601501,582.871277 
	C669.209656,596.205444 644.815063,598.540222 619.851685,598.600952 
	C619.167908,597.888123 618.632080,597.240906 618.087524,597.233459 
	C610.597717,597.130676 603.105713,597.053650 595.617126,597.163025 
	C594.737305,597.175842 593.874207,598.333008 592.544434,598.989502 
	C587.634033,598.407593 583.199402,597.569641 578.727173,597.234070 
	C570.806152,596.639648 562.823120,596.694763 554.943237,595.798950 
	C550.520569,595.296143 546.252563,593.432068 542.066101,591.913757 
	C543.148254,590.465210 544.079224,589.284180 545.437866,588.038818 
	C547.496887,588.165649 549.131775,588.330444 550.758850,588.552368 
	C561.508606,590.018433 572.229126,592.465759 583.010925,592.772095 
	C606.340698,593.435181 629.734131,594.267517 652.931458,590.055725 
	C668.097534,587.302124 683.052063,584.373779 694.190247,572.036865 
	C695.325134,572.744934 696.155945,573.371582 696.986816,573.998230 
	C694.142639,580.593750 697.791016,586.638367 705.121887,588.040955 
	C720.166321,590.919495 735.171387,594.004272 750.656128,597.394531 
	C750.750244,599.504883 750.380981,601.224792 749.588013,602.975830 
	C732.869507,599.869995 716.574585,596.732910 700.152954,593.571472 
	C699.429504,606.408630 698.042908,609.420410 684.717896,614.565796 
	C680.457764,616.210876 676.058044,617.656433 671.595642,618.585815 
	C657.253845,621.572754 642.893127,624.666138 628.065613,623.068420 
	C627.409668,622.997742 626.719238,623.006958 626.072937,623.128418 
	C622.864563,623.731506 619.660461,624.951721 616.464172,624.922729 
	C602.078369,624.792603 587.667542,624.744263 573.322205,623.803589 
	C564.162292,623.203064 555.101196,621.095886 546.031250,619.337891 
	C547.043579,617.408386 548.020447,615.805237 549.397705,614.181946 
	C562.507507,615.758667 575.180237,618.226868 587.934326,618.764526 
	C611.910095,619.775146 635.981506,619.552429 659.619385,614.791565 
	C669.963440,612.708130 680.082764,609.144470 689.998840,605.436462 
	C696.025024,603.183044 696.866577,600.161560 695.514160,594.391418 
	C691.047913,596.597046 686.716003,599.292175 682.019165,600.959351 
	C661.976929,608.073303 640.986511,609.052856 619.875183,609.614807 
	C619.203003,608.912292 618.671570,608.291931 618.132141,608.284912 
	C610.602966,608.186462 603.071899,608.112366 595.543945,608.218750 
	C594.686584,608.230896 593.845215,609.370178 592.532593,610.005493 
	C583.868958,609.652222 575.646484,609.538757 567.476746,608.823914 
	C561.295288,608.283081 555.151611,607.129822 549.043457,605.972900 
	C538.407227,603.958374 527.798950,601.763977 518.982910,594.430603 
	C518.040466,592.930908 517.119385,591.768188 516.198242,590.605530 
	C516.042542,591.363403 515.886841,592.121216 515.763916,593.306519 
	C515.728027,595.155457 515.659241,596.576904 515.340454,598.010437 
	C514.756775,598.031555 514.423157,598.040710 513.818909,597.835693 
	C512.664612,597.427856 511.780914,597.234131 510.674988,597.035034 
	C510.452728,597.029602 510.008209,597.023499 510.008209,597.023499 
z"/>
<path fill="#5EFE6B" opacity="1.000000" stroke="none" 
	d="
M772.349060,263.002319 
	C773.287048,263.000580 774.225037,262.998810 775.514648,263.002625 
	C775.810974,267.513519 775.755554,272.018799 774.991211,276.751251 
	C773.180115,277.607361 772.077881,278.236328 770.975647,278.865265 
	C769.277283,280.085297 766.633911,280.963959 766.047974,282.585876 
	C763.792664,288.828705 759.762329,291.226135 753.356201,290.043762 
	C752.557373,289.896301 751.709412,290.014893 750.124023,289.726379 
	C746.904480,289.906555 744.445129,290.370636 741.985840,290.834717 
	C738.289124,290.887726 734.592468,290.940735 730.329712,290.632355 
	C727.273926,288.044556 725.926514,289.313171 724.987671,291.831879 
	C724.987671,291.831879 724.527222,291.979706 724.057190,292.181824 
	C723.394714,292.930573 723.202209,293.477173 723.009705,294.023743 
	C708.452087,318.071716 693.855835,342.096497 679.413452,366.213409 
	C678.308167,368.059113 678.035400,370.530670 677.817932,372.754578 
	C677.339172,377.650696 677.143311,382.574493 676.805237,387.909515 
	C658.412598,390.313477 640.518677,392.652252 622.033203,394.669922 
	C621.579468,393.574524 621.539612,392.703613 621.895935,392.048126 
	C622.462402,391.006165 623.293213,390.107880 624.420654,389.074524 
	C638.146545,387.003571 651.435486,384.780334 664.791504,383.087311 
	C674.199463,381.894684 674.247681,382.216034 673.947693,372.924469 
	C673.928101,372.317749 673.661316,371.719025 673.439148,370.837494 
	C651.175659,373.528900 629.095215,376.198151 607.305298,378.832306 
	C607.305298,383.514404 607.305298,387.131287 607.305298,391.030884 
	C609.378357,391.030884 611.192078,391.030884 613.074097,391.328583 
	C613.777344,392.416870 614.412292,393.207428 615.047241,393.998016 
	C614.378723,394.755249 613.710266,395.512512 612.627563,396.606873 
	C608.983826,396.346863 606.139404,395.100830 602.340576,396.023560 
	C600.394836,396.496155 596.919128,394.636810 593.995117,396.003662 
	C592.304199,394.502716 590.776794,392.966156 593.329834,390.315369 
	C597.113403,390.389130 600.397583,390.798004 604.033203,391.250641 
	C604.033203,387.393768 604.353088,384.387970 603.887390,381.509277 
	C603.679504,380.224487 602.025146,378.381439 600.800354,378.181488 
	C592.570740,376.837799 584.280029,375.867798 575.947876,374.540100 
	C575.278748,374.140472 574.670898,373.977448 573.684937,373.897278 
	C571.631531,369.659576 569.956177,365.338989 568.628540,361.013428 
	C569.903198,361.013306 570.830261,361.018158 571.845337,361.243958 
	C571.933472,361.464874 572.026367,361.931396 572.052612,362.208435 
	C572.303162,362.985931 572.527466,363.486389 572.932434,364.330566 
	C574.002258,367.201233 574.848633,369.182007 578.427734,369.170563 
	C582.626709,369.157135 586.818176,370.404541 591.033752,370.940552 
	C595.211426,371.471710 599.415100,371.798096 603.898376,372.243195 
	C602.927979,347.161011 601.987061,322.840057 601.040405,298.372101 
	C592.160339,297.841614 583.584961,297.329315 574.983582,296.453491 
	C574.640564,294.424652 574.323486,292.759277 574.463257,291.034882 
	C585.895630,290.975830 596.871216,290.975830 607.977356,290.975830 
	C607.977356,290.317596 607.977356,289.163910 608.173706,287.794617 
	C608.554749,287.034271 608.739563,286.489563 609.182007,285.714294 
	C610.958130,284.987091 612.476624,284.490509 613.986389,284.356995 
	C613.963684,285.204132 613.949707,285.688171 613.550781,286.127197 
	C612.266724,288.152130 611.367554,290.222107 610.545166,292.115234 
	C616.417175,292.115234 621.213867,292.115234 626.037109,292.455475 
	C627.356323,294.126740 628.648987,295.457733 629.722290,297.157837 
	C621.315125,298.071075 613.127380,298.615265 604.530884,299.186615 
	C605.420227,324.072968 606.292236,348.474121 607.155762,372.637939 
	C618.063965,371.365295 628.314270,370.109802 638.579163,368.988892 
	C648.523254,367.902954 658.496765,367.074799 668.427917,365.887573 
	C672.332947,365.420776 675.570984,363.934479 677.825256,359.973846 
	C682.297852,352.115326 687.463318,344.651184 692.511108,336.817383 
	C692.794067,336.095032 692.908325,335.579376 693.070984,334.794617 
	C693.421936,334.350006 693.724426,334.174530 694.239075,333.795258 
	C694.623901,333.037292 694.796692,332.483185 695.097839,331.604675 
	C696.848816,328.860199 698.471375,326.440094 700.298462,323.814575 
	C700.663452,323.060516 700.824036,322.511932 701.071533,321.674591 
	C701.528015,320.921539 701.897583,320.457214 702.426392,319.874298 
	C702.784912,319.573547 702.933228,319.356506 703.136841,318.820679 
	C703.310547,318.346130 703.377747,318.155518 703.585083,317.834991 
	C703.886292,317.497131 703.977173,317.262085 704.109619,316.669006 
	C705.561951,314.223694 706.902344,312.109253 708.401978,309.866760 
	C708.763733,309.549591 708.917297,309.326691 709.028198,309.035706 
	C709.034668,309.001434 709.102356,309.018402 709.306030,308.813904 
	C709.667175,308.061859 709.824585,307.514313 710.067261,306.678040 
	C710.517456,305.923096 710.882263,305.456879 711.402100,304.865845 
	C711.754395,304.556885 711.902893,304.339417 712.016113,304.026093 
	C712.029602,303.963562 712.154724,303.990021 712.349121,303.785767 
	C712.686035,303.041168 712.828552,302.500854 713.056641,301.671265 
	C713.512207,300.918640 713.882202,300.455292 714.409424,299.872864 
	C714.765564,299.574768 714.915955,299.361481 715.130798,298.787231 
	C715.928711,297.303925 716.613708,296.147308 717.457520,294.885345 
	C717.813293,294.610565 717.958862,294.404785 718.076782,294.087769 
	C718.100464,294.012909 718.249512,294.062531 718.373291,293.983093 
	C718.701355,293.648956 718.722168,293.379822 718.311157,292.761414 
	C716.704712,292.237823 715.346497,292.049072 714.014648,291.544128 
	C714.379944,290.479828 714.718994,289.731628 715.418884,288.982666 
	C717.190979,288.048737 718.602173,287.115540 720.472656,286.113037 
	C725.284119,286.079163 729.636230,286.114655 734.104004,286.431885 
	C736.631897,288.997314 737.304443,287.033905 738.462524,285.092773 
	C741.937195,285.065918 744.962952,285.105927 748.086487,285.398254 
	C749.127625,285.156464 750.070923,284.662323 751.456177,284.102264 
	C760.252930,283.907562 760.252930,283.907562 761.473511,279.803467 
	C759.261780,279.803467 757.130920,279.803467 754.952637,279.455261 
	C752.936340,277.452118 750.967285,275.797150 749.411194,274.071594 
	C751.218872,274.025940 752.613586,274.050873 754.106262,274.418854 
	C756.799438,274.897125 759.394775,275.032318 762.278320,275.344238 
	C765.513794,275.175568 769.168701,277.332642 771.409180,272.921082 
	C771.979004,269.476471 772.164001,266.239380 772.349060,263.002319 
z"/>
<path fill="#5EFE6B" opacity="1.000000" stroke="none" 
	d="
M750.011719,602.944641 
	C750.380981,601.224792 750.750244,599.504883 751.060303,597.475891 
	C757.741821,598.455017 764.619568,599.296265 771.143127,601.293884 
	C773.199829,601.923706 774.767761,605.481445 775.705872,608.015198 
	C776.469666,610.078186 775.956421,612.612976 776.015015,614.938416 
	C776.307251,626.536072 776.722961,638.132324 776.860779,649.731873 
	C777.000488,661.483826 775.731506,662.847351 763.262146,665.104675 
	C761.691162,665.786804 760.838867,666.406921 759.581970,666.940613 
	C754.798279,668.205261 750.419189,669.556274 745.848999,670.940186 
	C745.141602,670.358521 744.625244,669.743958 743.851196,668.822754 
	C743.062256,670.181274 742.510193,671.131897 741.958130,672.082520 
	C734.331421,673.847046 726.653809,675.418518 719.087585,677.412598 
	C697.120117,683.201843 675.211426,689.214355 653.243652,695.002686 
	C649.364441,696.024780 646.553467,697.344788 645.764832,701.913208 
	C645.433960,703.829468 643.281067,705.903381 641.420166,706.967590 
	C638.917053,708.398682 635.895813,709.616821 633.095642,709.619690 
	C630.784607,709.622070 627.493835,708.325806 626.390930,706.528748 
	C624.774231,703.894470 623.252686,703.331116 620.307678,703.919556 
	C620.239563,702.121582 620.526428,700.408875 621.246948,698.240356 
	C623.020813,697.201965 624.312683,696.439636 625.708679,696.063477 
	C656.882263,687.663879 688.070618,679.319397 719.248657,670.936401 
	C735.242493,666.636108 751.245361,662.364990 767.183167,657.864624 
	C769.658264,657.165649 773.243347,657.422363 773.064514,652.733765 
	C772.538330,638.944641 772.395813,625.140564 772.138550,611.341614 
	C772.083130,608.366760 770.776611,607.652710 767.966370,608.387207 
	C760.367676,610.373169 752.732605,612.224548 745.091003,614.040833 
	C708.724792,622.684204 672.351562,631.298157 635.980835,639.922607 
	C635.987000,638.272949 635.993225,636.623352 636.394043,634.480835 
	C675.864990,624.473267 714.941406,614.958679 754.980835,605.209534 
	C752.702209,604.170959 751.356934,603.557800 750.011719,602.944641 
M639.118103,701.929138 
	C640.486755,701.075562 641.855347,700.221985 643.223999,699.368469 
	C643.038757,698.995117 642.853516,698.621765 642.668274,698.248413 
	C637.919617,699.535583 633.170898,700.822815 628.422241,702.110046 
	C628.534424,702.690430 628.646545,703.270813 628.758728,703.851196 
	C631.954041,703.233643 635.149414,702.616150 639.118103,701.929138 
z"/>
<path fill="#5EFE6B" opacity="1.000000" stroke="none" 
	d="
M391.843567,239.253311 
	C393.767456,238.768280 395.299866,238.472336 397.227905,238.616943 
	C396.699371,242.092941 394.969269,245.127838 394.967072,248.164017 
	C394.872589,377.685364 394.927063,507.206787 395.014648,636.728210 
	C395.016052,638.819519 395.652649,640.910461 395.992798,643.001587 
	C395.000244,642.995605 394.007690,642.989685 392.642914,642.979248 
	C391.904236,641.065308 391.218140,639.156067 391.216858,637.246277 
	C391.129120,506.300964 391.094910,375.355591 391.075287,244.410233 
	C391.075043,242.754303 391.321014,241.098343 391.843567,239.253311 
z"/>
<path fill="#5EFE6B" opacity="1.000000" stroke="none" 
	d="
M697.325867,573.853760 
	C696.155945,573.371582 695.325134,572.744934 694.276367,571.664978 
	C695.042847,566.974487 696.854370,562.739563 696.866333,558.499634 
	C696.913940,541.595581 696.482849,524.687805 696.071350,507.785309 
	C695.717285,493.246643 691.088196,479.834534 684.479797,467.084442 
	C681.278992,460.908966 677.472351,455.047516 674.273193,449.089600 
	C676.110413,449.073700 677.614502,449.012115 679.118530,448.950500 
	C688.924438,461.551300 695.014343,475.886932 697.842102,491.463654 
	C702.103394,514.937500 700.869812,538.717224 700.656372,562.402466 
	C700.622253,566.180054 698.709290,569.940796 697.325867,573.853760 
z"/>
<path fill="#5EFE6B" opacity="1.000000" stroke="none" 
	d="
M713.973022,444.000946 
	C713.324829,445.399628 712.676575,446.798309 712.028442,448.553345 
	C708.299133,444.839996 703.657898,443.650269 698.240723,443.951874 
	C692.451538,444.274170 686.629272,443.962555 680.824463,444.078583 
	C679.514465,444.104767 678.216919,444.755157 676.652222,445.462219 
	C676.186157,444.422363 675.612915,442.961670 675.880798,441.676239 
	C676.147522,440.396423 677.258545,439.292572 678.464233,438.046509 
	C686.680420,437.978851 694.438660,437.792694 702.179688,438.075134 
	C704.814514,438.171295 707.406372,439.447266 710.208008,440.367004 
	C710.682251,440.773041 710.966248,440.996246 711.549805,441.273499 
	C712.557251,442.218658 713.265137,443.109802 713.973022,444.000946 
z"/>
<path fill="#5EFE6B" opacity="1.000000" stroke="none" 
	d="
M759.986511,667.026978 
	C760.838867,666.406921 761.691162,665.786804 762.869507,665.122070 
	C762.447998,673.622131 762.449951,673.628784 752.917908,676.429810 
	C748.460083,677.739685 744.522095,677.425110 741.989136,672.447876 
	C742.510193,671.131897 743.062256,670.181274 743.851196,668.822754 
	C744.625244,669.743958 745.141602,670.358521 746.274536,670.981689 
	C751.256226,669.669189 755.621399,668.348083 759.986511,667.026978 
z"/>
<path fill="#5EFE6B" opacity="1.000000" stroke="none" 
	d="
M677.999451,438.111572 
	C677.258545,439.292572 676.147522,440.396423 675.880798,441.676239 
	C675.612915,442.961670 676.186157,444.422363 676.700928,445.899353 
	C677.659912,446.766693 678.308777,447.540924 679.038086,448.632874 
	C677.614502,449.012115 676.110413,449.073700 674.294006,449.074890 
	C673.981628,449.014526 673.971436,449.064423 673.820190,448.866150 
	C673.444214,448.418457 673.186646,448.209503 672.931396,448.036011 
	C672.966553,448.031067 672.934265,448.094238 672.924255,447.754395 
	C672.279236,446.608826 671.644287,445.803101 671.004639,444.999298 
	C671.000000,445.001221 671.001404,444.993866 670.978638,444.642487 
	C670.518921,442.023529 669.802917,440.250671 666.880249,442.386780 
	C665.815002,442.812286 664.919983,442.939545 663.800903,442.874634 
	C662.714417,443.101532 661.851990,443.520599 660.802856,444.260010 
	C659.404541,444.695068 658.192871,444.809723 657.007690,444.572510 
	C657.692871,442.492828 658.351562,440.764984 659.174622,438.727539 
	C660.244995,438.324890 661.150940,438.231842 662.299133,438.302124 
	C663.361084,437.941895 664.180786,437.418274 665.157227,436.600708 
	C665.954102,435.538483 666.594299,434.770172 667.567993,434.001099 
	C668.569397,434.000397 669.237244,434.000427 669.969666,434.358398 
	C670.355896,435.561127 670.677551,436.405945 671.039307,437.578979 
	C672.230469,440.708099 673.536316,440.635681 675.349365,438.051422 
	C676.483032,438.027832 677.241272,438.069702 677.999451,438.111572 
z"/>
<path fill="#5EFE6B" opacity="1.000000" stroke="none" 
	d="
M564.579224,197.089447 
	C563.029175,197.951599 561.027893,199.337112 558.998962,199.378983 
	C553.758240,199.487137 548.505310,199.001892 543.126770,198.381958 
	C550.035950,197.673752 557.075684,197.337204 564.579224,197.089447 
z"/>
<path fill="#5EFE6B" opacity="1.000000" stroke="none" 
	d="
M615.282104,394.207642 
	C614.412292,393.207428 613.777344,392.416870 613.289429,390.982788 
	C616.961792,389.942474 620.487000,389.545654 624.012268,389.148865 
	C623.293213,390.107880 622.462402,391.006165 621.895935,392.048126 
	C621.539612,392.703613 621.579468,393.574524 621.583374,394.570587 
	C620.764099,395.197601 619.803040,395.602844 618.487488,396.030579 
	C617.260986,395.507812 616.388977,394.962555 615.282104,394.207642 
z"/>
<path fill="#5EFE6B" opacity="1.000000" stroke="none" 
	d="
M720.758362,199.654175 
	C717.811401,202.774445 708.350891,202.663345 704.113403,199.474152 
	C709.472778,199.200012 714.988342,199.254501 720.758362,199.654175 
z"/>
<path fill="#5EFE6B" opacity="1.000000" stroke="none" 
	d="
M641.751831,197.656372 
	C638.921875,200.748413 633.653748,200.672363 628.130371,197.483353 
	C632.480591,197.212234 636.991089,197.261597 641.751831,197.656372 
z"/>
<path fill="#5EFE6B" opacity="1.000000" stroke="none" 
	d="
M495.043213,200.074158 
	C490.445282,199.956528 485.847382,199.838898 481.120239,199.353424 
	C485.041779,198.657944 489.092590,198.330292 493.722473,198.322144 
	C494.548798,199.119156 494.796021,199.596664 495.043213,200.074158 
z"/>
<path fill="#5EFE6B" opacity="1.000000" stroke="none" 
	d="
M678.751221,198.702728 
	C675.792969,201.827179 671.260864,201.747208 667.111206,198.509827 
	C670.817078,198.234879 674.663330,198.294434 678.751221,198.702728 
z"/>
<path fill="#5EFE6B" opacity="1.000000" stroke="none" 
	d="
M495.376526,200.279877 
	C494.796021,199.596664 494.548798,199.119156 494.180359,198.403046 
	C497.740723,198.114853 501.422333,198.065277 505.559387,198.091156 
	C503.502350,203.039047 499.336914,200.566040 495.376526,200.279877 
z"/>
<path fill="#5EFE6B" opacity="1.000000" stroke="none" 
	d="
M446.562012,199.092529 
	C443.742157,202.818497 440.349945,203.082840 437.039520,199.571823 
	C440.026642,199.142151 443.069061,199.080231 446.562012,199.092529 
z"/>
<path fill="#5EFE6B" opacity="1.000000" stroke="none" 
	d="
M742.409546,290.906464 
	C744.445129,290.370636 746.904480,289.906555 749.665344,289.676483 
	C747.589050,290.266388 745.211182,290.622314 742.409546,290.906464 
z"/>
<path fill="#5EFE6B" opacity="1.000000" stroke="none" 
	d="
M725.372925,291.892639 
	C725.926514,289.313171 727.273926,288.044556 729.870728,290.575592 
	C728.571289,291.237946 727.164734,291.595703 725.372925,291.892639 
z"/>
<path fill="#5EFE6B" opacity="1.000000" stroke="none" 
	d="
M771.352783,278.939880 
	C772.077881,278.236328 773.180115,277.607361 774.633179,276.986511 
	C773.899353,277.667908 772.814575,278.341187 771.352783,278.939880 
z"/>
<path fill="#5EFE6B" opacity="1.000000" stroke="none" 
	d="
M723.273926,293.878113 
	C723.202209,293.477173 723.394714,292.930573 723.815918,292.197876 
	C723.875793,292.585358 723.706970,293.158905 723.273926,293.878113 
z"/>
<path fill="#5EFE6B" opacity="1.000000" stroke="none" 
	d="
M531.168152,293.522766 
	C521.920593,293.546265 512.791443,293.239563 503.660278,293.014862 
	C502.261841,292.980469 500.854034,293.324036 499.452728,293.509308 
	C499.448517,293.509857 499.444427,293.768341 499.497162,293.879303 
	C499.566040,294.024139 499.691772,294.141968 499.933228,294.900146 
	C500.281097,296.008240 500.488831,296.487610 500.696564,296.966949 
	C501.079956,297.449127 501.463348,297.931305 501.996460,299.212646 
	C502.446014,300.553040 502.745850,301.094269 503.045654,301.635498 
	C503.045654,301.635498 503.009766,301.564941 503.035980,301.597290 
	C502.044281,301.742340 501.026337,301.855011 499.496704,301.987885 
	C498.684296,301.656067 498.250275,301.352295 498.102783,300.944824 
	C495.691528,294.282990 491.676514,290.790894 483.902161,291.716095 
	C478.605530,292.346405 473.047913,291.616760 467.728851,290.748627 
	C465.992310,290.465179 464.055023,288.084900 463.232880,286.213898 
	C461.485748,282.237915 459.836426,279.034424 454.408142,281.940430 
	C453.289429,281.195343 452.538544,280.297699 451.544434,278.928101 
	C451.558716,277.973816 451.816284,277.491486 452.255035,276.883667 
	C452.666290,276.570129 452.857330,276.348480 453.221252,275.711060 
	C468.277252,275.611267 483.121277,275.893616 498.064545,276.517029 
	C500.361511,279.583038 502.619843,280.250092 505.453674,277.025513 
	C523.267151,277.717468 540.618713,278.442963 558.076660,279.513367 
	C560.711304,282.607941 563.300232,283.168701 566.456177,280.033508 
	C578.612610,280.392822 590.303345,280.793488 602.020996,281.513184 
	C602.700195,282.552948 603.352539,283.273651 603.776001,284.200073 
	C602.710083,285.223816 601.873047,286.041901 600.570435,286.935608 
	C584.861633,286.350769 569.619324,285.663940 554.374512,285.039368 
	C544.588379,284.638397 534.792236,284.450256 525.012146,283.943085 
	C516.091675,283.480438 507.195496,282.425507 498.272888,282.160492 
	C487.573395,281.842712 476.857239,282.085419 465.979980,282.085419 
	C466.147522,286.883331 470.507904,284.251953 473.105042,285.478699 
	C476.441650,288.314301 479.660767,289.545441 483.459473,286.022980 
	C488.329407,286.323883 492.734131,286.702301 497.145782,286.963196 
	C509.760040,287.709137 522.377136,288.407410 534.993103,289.124451 
	C533.757385,290.489441 532.521606,291.854431 531.168152,293.522766 
z"/>
<path fill="#5EFE6B" opacity="1.000000" stroke="none" 
	d="
M540.917236,424.529419 
	C538.302246,424.902008 535.594116,424.949310 532.440796,424.535034 
	C532.168518,421.540497 531.258057,420.147675 528.464233,419.911377 
	C527.251404,419.808777 526.129639,418.630493 524.966492,417.940796 
	C524.966492,417.940796 524.976990,418.002563 525.137207,417.874115 
	C525.546692,417.586426 525.772339,417.398834 525.974426,417.182831 
	C531.703308,415.780365 537.432251,414.377930 543.601196,413.058197 
	C543.765503,414.586060 543.489807,416.031189 543.240295,417.338959 
	C541.132385,418.182404 539.209412,418.951843 536.785217,419.921814 
	C538.470337,421.708496 539.647217,422.956299 540.917236,424.529419 
M535.499756,418.482819 
	C535.499756,418.482819 535.508667,418.510101 535.499756,418.482819 
z"/>
<path fill="#5EFE6B" opacity="1.000000" stroke="none" 
	d="
M606.963257,401.562622 
	C602.606140,401.914429 598.202454,401.957245 593.426819,402.070465 
	C593.349915,400.353455 593.644958,398.566071 593.967529,396.391174 
	C596.919128,394.636810 600.394836,396.496155 602.340576,396.023560 
	C606.139404,395.100830 608.983826,396.346863 612.597107,396.937927 
	C611.985779,397.615509 610.981079,398.285614 609.998352,398.986511 
	C608.960144,399.726929 607.942993,400.496704 606.963257,401.562622 
z"/>
<path fill="#5EFE6B" opacity="1.000000" stroke="none" 
	d="
M721.023376,418.004700 
	C705.448547,418.015747 689.851990,418.015747 674.255493,418.015747 
	C674.192261,417.612946 674.129089,417.210144 674.065857,416.807343 
	C674.960754,416.533508 675.854858,416.024231 676.750671,416.021118 
	C690.224548,415.974213 703.698853,415.961365 717.172302,416.054840 
	C718.358154,416.063080 719.538513,416.869995 720.868652,417.672974 
	C721.015930,418.040009 721.001709,417.993683 721.023376,418.004700 
z"/>
<path fill="#5EFE6B" opacity="1.000000" stroke="none" 
	d="
M612.972656,418.373779 
	C608.005188,418.758942 602.998291,418.797882 597.705566,418.658752 
	C598.287659,417.874786 599.118408,416.817230 600.029663,416.742554 
	C603.626709,416.447968 607.250732,416.371704 610.860535,416.439270 
	C611.561035,416.452362 612.242798,417.472137 612.972656,418.373779 
z"/>
<path fill="#5EFE6B" opacity="1.000000" stroke="none" 
	d="
M536.135986,289.409729 
	C538.053589,289.082794 540.092346,289.043030 542.494934,289.402283 
	C542.237732,291.482269 541.616760,293.163239 540.995728,294.844238 
	C539.921448,294.889862 538.847229,294.935486 537.368530,294.984375 
	C536.728516,293.224091 536.492798,291.460510 536.135986,289.409729 
z"/>
<path fill="#5EFE6B" opacity="1.000000" stroke="none" 
	d="
M667.567993,434.001099 
	C667.214905,432.605743 667.195251,431.209656 667.270386,429.403809 
	C667.997314,428.996216 668.629456,428.998413 669.578613,429.000000 
	C669.941223,430.390656 669.986816,431.781921 669.968811,433.586853 
	C669.237244,434.000427 668.569397,434.000397 667.567993,434.001099 
z"/>
<path fill="#5EFE6B" opacity="1.000000" stroke="none" 
	d="
M617.090210,413.410034 
	C617.778503,412.787140 618.562195,412.417053 619.676331,412.107452 
	C619.066406,412.666229 618.125977,413.164551 617.090210,413.410034 
z"/>
<path fill="#5EFE6B" opacity="1.000000" stroke="none" 
	d="
M590.933533,417.583740 
	C590.421753,417.743561 589.836487,417.666870 589.119873,417.312744 
	C589.612366,417.139282 590.236145,417.243256 590.933533,417.583740 
z"/>
<path fill="#5EFE6B" opacity="1.000000" stroke="none" 
	d="
M618.921509,402.823486 
	C618.842773,402.940308 618.668945,402.946808 618.257324,402.845764 
	C618.286743,402.556274 618.555725,402.547913 618.921509,402.823486 
z"/>
<path fill="#5EFE6B" opacity="1.000000" stroke="none" 
	d="
M495.060120,214.562347 
	C519.689209,214.125748 544.380615,214.069061 569.536499,214.080536 
	C568.307129,215.099579 566.620239,216.863464 564.918396,216.878052 
	C543.154419,217.064713 521.388062,217.041641 499.623230,216.912262 
	C498.119110,216.903320 496.622559,215.628433 495.060120,214.562347 
z"/>
<path fill="#5EFE6B" opacity="1.000000" stroke="none" 
	d="
M611.289673,228.029022 
	C611.689331,244.035126 611.746582,260.042053 611.383667,276.507141 
	C610.067566,276.965973 609.171509,276.966614 608.275513,276.967285 
	C608.211426,260.961365 608.147400,244.955429 608.146484,228.486115 
	C609.122192,228.025085 610.034729,228.027466 611.289673,228.029022 
z"/>
<path fill="#5EFE6B" opacity="1.000000" stroke="none" 
	d="
M420.887512,212.332581 
	C422.461456,212.699219 423.789124,213.904114 425.125336,213.913620 
	C443.446533,214.044052 461.768890,214.009598 480.555573,214.093018 
	C479.237762,215.098404 477.464630,216.811340 475.671539,216.832535 
	C458.537292,217.034897 441.399628,216.953140 424.262970,216.947189 
	C421.345062,216.946167 419.060394,216.389252 420.887512,212.332581 
z"/>
<path fill="#5EFE6B" opacity="1.000000" stroke="none" 
	d="
M568.700806,219.698517 
	C568.293335,220.297653 567.584961,220.867661 566.877319,220.866623 
	C551.420471,220.843948 535.963623,220.757812 520.251465,220.339966 
	C520.557800,219.678726 521.120605,219.082169 521.680847,219.084671 
	C537.254150,219.153763 552.827209,219.283630 568.700806,219.698517 
z"/>
<path fill="#5EFE6B" opacity="1.000000" stroke="none" 
	d="
M639.103149,214.530548 
	C647.672913,214.130920 656.357056,214.087982 665.526611,214.424377 
	C666.094727,215.448807 666.177429,216.093887 666.260132,216.738968 
	C658.625793,216.814163 650.989685,216.994034 643.358643,216.869110 
	C641.967773,216.846344 640.597351,215.579681 639.103149,214.530548 
z"/>
<path fill="#5EFE6B" opacity="1.000000" stroke="none" 
	d="
M666.703247,216.768311 
	C666.177429,216.093887 666.094727,215.448807 665.990845,214.475739 
	C674.147217,214.205261 682.324707,214.262787 690.755493,214.667130 
	C689.495422,215.647598 687.995300,216.786774 686.466309,216.826920 
	C680.031006,216.995911 673.587097,216.836746 666.703247,216.768311 
z"/>
<path fill="#5EFE6B" opacity="1.000000" stroke="none" 
	d="
M503.700470,219.698120 
	C499.975372,220.302444 495.953583,220.784241 491.922943,220.876297 
	C487.121460,220.985947 482.312378,220.761261 477.252869,220.336487 
	C480.036041,219.626602 483.070923,218.979019 486.110260,218.957382 
	C491.872101,218.916397 497.636536,219.234253 503.700470,219.698120 
z"/>
<path fill="#5EFE6B" opacity="1.000000" stroke="none" 
	d="
M405.966125,227.710632 
	C405.831451,228.318115 405.652985,228.610733 405.209412,228.942108 
	C404.179749,228.597809 403.415283,228.214767 402.650787,227.831726 
	C403.185059,227.128662 403.719360,226.425613 404.253632,225.722549 
	C404.809875,226.280289 405.366089,226.838028 405.966125,227.710632 
z"/>
<path fill="#5EFE6B" opacity="1.000000" stroke="none" 
	d="
M596.045105,502.169952 
	C598.532715,501.681000 601.020325,501.192078 603.818848,500.642029 
	C603.818848,497.421356 603.818848,494.006744 603.818848,490.216644 
	C602.026550,490.093750 600.283081,489.974213 598.267761,489.836029 
	C598.267761,487.899261 598.267761,486.167023 598.267761,484.119537 
	C600.121399,484.015045 601.874512,483.916229 603.913330,483.801300 
	C603.913330,479.126251 603.913330,474.718628 603.913330,470.273987 
	C601.337585,469.155060 596.275024,471.325195 597.389160,466.029510 
	C597.755188,464.289886 600.989990,463.153809 603.831848,461.066925 
	C603.831848,458.574860 603.831848,454.509033 603.831848,450.416382 
	C596.854980,449.946930 590.067749,449.874664 583.396423,448.958923 
	C570.718323,447.218689 558.113953,444.946228 545.456909,443.041656 
	C544.011719,442.824219 541.653687,443.004913 541.020142,443.910919 
	C531.107422,458.085968 521.200684,472.387421 517.652649,489.718933 
	C515.839905,498.573639 514.513184,507.643951 514.186340,516.661072 
	C513.614075,532.445801 513.981506,548.264709 513.903442,564.535522 
	C513.069397,565.255798 512.287231,565.509766 511.223602,565.893677 
	C510.631836,564.118591 510.027893,562.209290 510.056732,560.309509 
	C510.343628,541.394531 510.109283,522.442566 511.267853,503.577637 
	C512.496704,483.568939 519.899475,465.463928 531.447021,449.049316 
	C537.865967,439.925018 536.513733,435.219788 526.307190,430.029053 
	C525.284851,429.509125 524.243347,429.023041 523.191162,428.566223 
	C517.806396,426.228119 517.410828,423.708710 521.858582,419.725403 
	C522.583618,419.076141 523.458191,418.593842 524.615051,417.987610 
	C526.129639,418.630493 527.251404,419.808777 528.464233,419.911377 
	C531.258057,420.147675 532.168518,421.540497 531.993225,424.473907 
	C531.335205,424.959473 530.679565,425.044525 530.402039,425.080566 
	C533.546448,428.602905 536.838013,432.290131 539.753479,435.556000 
	C579.041931,445.714172 618.537231,445.331726 658.588867,439.005981 
	C658.351562,440.764984 657.692871,442.492828 657.007690,444.572510 
	C649.287659,446.278442 641.636658,448.015228 633.888306,448.877441 
	C626.323303,449.719299 618.660828,449.838440 611.037048,449.928406 
	C607.797363,449.966614 606.911377,451.481354 607.127747,454.166656 
	C607.351257,456.941772 607.830566,459.696350 608.241272,462.786011 
	C609.784851,462.934387 611.398071,463.089447 613.579102,463.299103 
	C613.730469,464.908112 613.892029,466.625916 614.050293,468.308411 
	C606.973511,469.904572 606.886047,470.142212 608.265808,483.699310 
	C609.787720,483.860168 611.380371,484.028564 613.526428,484.255432 
	C613.619324,485.904327 613.716187,487.624390 613.830688,489.657318 
	C611.787476,489.894897 610.044739,490.097534 607.729309,490.366791 
	C607.729309,493.777832 607.729309,497.135468 607.838135,501.183105 
	C607.982727,502.285156 608.018494,502.697235 607.694458,503.300049 
	C603.571411,503.050507 599.808228,502.610229 596.045105,502.169952 
z"/>
<path fill="#5EFE6B" opacity="1.000000" stroke="none" 
	d="
M515.340393,598.010437 
	C517.843689,600.373108 519.667603,603.779907 522.430603,604.929688 
	C530.828613,608.424194 539.589478,611.046692 548.603149,614.105347 
	C548.020447,615.805237 547.043579,617.408386 546.031250,619.337891 
	C537.436218,616.684265 528.876587,613.704407 520.004639,610.106628 
	C517.533142,606.997192 515.373962,604.505615 513.214783,602.014038 
	C513.214783,602.014038 513.018188,601.558472 513.059448,600.993713 
	C513.430298,599.635925 513.759949,598.842834 514.089539,598.049805 
	C514.423157,598.040710 514.756775,598.031555 515.340393,598.010437 
z"/>
<path fill="#5EFE6B" opacity="1.000000" stroke="none" 
	d="
M542.066101,591.913757 
	C535.479614,589.510498 529.044373,586.839661 522.305420,583.779907 
	C522.001770,583.391052 522.010925,582.960754 522.010925,582.960754 
	C522.992432,581.924011 523.973938,580.887207 524.976013,579.507629 
	C525.368713,579.044556 525.656860,579.151123 526.030029,579.826416 
	C526.198914,580.168335 526.559937,580.339539 526.559937,580.339539 
	C526.559937,580.339539 526.961731,580.252991 526.961731,580.252930 
	C532.755676,582.764221 538.549622,585.275513 544.676880,587.944946 
	C544.079224,589.284180 543.148254,590.465210 542.066101,591.913757 
z"/>
<path fill="#5EFE6B" opacity="1.000000" stroke="none" 
	d="
M619.851685,598.600952 
	C615.639282,599.316101 611.287964,599.855408 606.925476,599.968567 
	C602.454102,600.084656 597.971924,599.783813 593.248901,599.312622 
	C593.874207,598.333008 594.737305,597.175842 595.617126,597.163025 
	C603.105713,597.053650 610.597717,597.130676 618.087524,597.233459 
	C618.632080,597.240906 619.167908,597.888123 619.851685,598.600952 
z"/>
<path fill="#5EFE6B" opacity="1.000000" stroke="none" 
	d="
M619.875183,609.614807 
	C615.651184,610.329102 611.294922,610.858215 606.927795,610.972473 
	C602.454956,611.089539 597.971436,610.800293 593.244507,610.337891 
	C593.845215,609.370178 594.686584,608.230896 595.543945,608.218750 
	C603.071899,608.112366 610.602966,608.186462 618.132141,608.284912 
	C618.671570,608.291931 619.203003,608.912292 619.875183,609.614807 
z"/>
<path fill="#5EFE6B" opacity="1.000000" stroke="none" 
	d="
M518.982910,594.430603 
	C518.127686,594.173218 517.251099,593.578796 516.052795,592.931763 
	C515.886841,592.121216 516.042542,591.363403 516.198242,590.605530 
	C517.119385,591.768188 518.040466,592.930908 518.982910,594.430603 
z"/>
<path fill="#5EFE6B" opacity="1.000000" stroke="none" 
	d="
M513.818909,597.835693 
	C513.759949,598.842834 513.430298,599.635925 513.037598,600.746582 
	C512.386719,599.923035 511.798981,598.781860 511.054199,597.340576 
	C511.780914,597.234131 512.664612,597.427856 513.818909,597.835693 
z"/>
<path fill="#5EFE6B" opacity="1.000000" stroke="none" 
	d="
M521.953552,582.743896 
	C522.010925,582.960754 522.001770,583.391052 521.999146,583.606323 
	C521.524597,583.590149 521.052673,583.358765 520.308838,583.118530 
	C520.656677,582.915527 521.276428,582.721313 521.953552,582.743896 
z"/>
<path fill="#5EFE6B" opacity="1.000000" stroke="none" 
	d="
M516.372009,580.008911 
	C516.190674,579.868713 516.182007,579.691345 516.233887,579.254639 
	C516.377747,579.320740 516.461243,579.646179 516.372009,580.008911 
z"/>
<path fill="#5EFE6B" opacity="1.000000" stroke="none" 
	d="
M516.028809,570.408813 
	C516.254700,570.571960 516.543823,571.000488 516.926392,571.706299 
	C516.710632,571.547119 516.401245,571.110596 516.028809,570.408813 
z"/>
<path fill="#5EFE6B" opacity="1.000000" stroke="none" 
	d="
M512.540771,584.811890 
	C512.207520,584.625488 512.266724,584.379211 512.805176,584.141479 
	C512.929321,584.304443 512.812317,584.505127 512.540771,584.811890 
z"/>
<path fill="#5EFE6B" opacity="1.000000" stroke="none" 
	d="
M514.981445,576.636108 
	C514.732422,576.845459 514.503723,576.741760 514.455078,576.269592 
	C514.696777,576.208435 514.819031,576.349060 514.981445,576.636108 
z"/>
<path fill="#5EFE6B" opacity="1.000000" stroke="none" 
	d="
M513.917847,574.713013 
	C513.645874,574.979004 513.361938,574.859192 513.217529,574.266724 
	C513.467041,574.175537 513.650024,574.353210 513.917847,574.713013 
z"/>
<path fill="#5EFE6B" opacity="1.000000" stroke="none" 
	d="
M514.129211,566.075928 
	C514.374207,565.983337 514.629578,566.185242 514.768921,566.727234 
	C514.523193,566.764771 514.352112,566.532471 514.129211,566.075928 
z"/>
<path fill="#5EFE6B" opacity="1.000000" stroke="none" 
	d="
M706.033997,276.177673 
	C720.060669,275.454285 734.087341,274.730865 748.556152,274.074829 
	C750.967285,275.797150 752.936340,277.452118 754.501587,279.535187 
	C749.809326,280.277069 745.524536,280.663300 741.231384,280.891174 
	C727.991943,281.593964 714.750427,282.258972 701.507629,282.896210 
	C686.266724,283.629639 671.019104,284.235260 655.783386,285.062714 
	C648.863037,285.438599 641.973083,286.533234 635.053650,286.720367 
	C628.024414,286.910461 620.975830,286.384583 613.935669,286.172241 
	C613.949707,285.688171 613.963684,285.204132 614.287537,284.261932 
	C615.067139,282.936890 615.536926,282.070007 616.006653,281.203094 
	C627.757141,280.801331 639.517029,280.575836 651.255859,279.954407 
	C666.873718,279.127686 682.475220,277.992554 698.649902,277.371674 
	C702.019897,279.526886 704.511230,279.947723 706.033997,276.177673 
z"/>
<path fill="#5EFE6B" opacity="1.000000" stroke="none" 
	d="
M626.037109,292.455475 
	C634.981445,291.405609 643.946411,290.606934 652.924622,290.005951 
	C668.815857,288.942108 684.711792,287.937958 700.613342,287.043335 
	C705.079224,286.792053 709.571472,287.010223 714.520752,287.393616 
	C715.012573,288.177277 715.035278,288.580353 715.057983,288.983459 
	C714.718994,289.731628 714.379944,290.479828 714.014648,291.544128 
	C713.543091,291.902832 713.097839,291.945374 712.150269,291.763916 
	C711.409912,291.330597 711.141968,291.171753 710.844177,291.063385 
	C684.409058,296.068787 657.520020,294.956390 630.403320,296.893250 
	C628.648987,295.457733 627.356323,294.126740 626.037109,292.455475 
z"/>
<path fill="#5EFE6B" opacity="1.000000" stroke="none" 
	d="
M574.983582,296.453491 
	C572.589111,296.604523 570.168701,296.392029 567.250610,295.728027 
	C564.898560,293.349335 563.301636,293.419708 562.013733,295.887390 
	C558.209473,295.887390 554.405212,295.887390 549.747437,295.887390 
	C557.234192,317.661438 564.557678,338.960571 571.819214,360.641357 
	C570.830261,361.018158 569.903198,361.013306 568.628540,361.013428 
	C561.234924,340.849976 554.188049,320.681946 547.146118,300.512177 
	C546.825623,299.594238 546.549072,298.660950 546.646729,297.307434 
	C549.304199,295.451416 551.633484,294.113739 553.789307,292.538635 
	C554.437256,292.065216 554.602295,290.930878 554.988586,290.099274 
	C561.041626,290.384430 567.094604,290.669586 573.577026,291.024323 
	C574.323486,292.759277 574.640564,294.424652 574.983582,296.453491 
z"/>
<path fill="#5EFE6B" opacity="1.000000" stroke="none" 
	d="
M761.039673,273.177246 
	C764.068542,273.109406 767.097412,273.041534 770.575317,273.051147 
	C769.168701,277.332642 765.513794,275.175568 762.179565,275.083405 
	C761.541504,274.156342 761.290588,273.666809 761.039673,273.177246 
z"/>
<path fill="#5EFE6B" opacity="1.000000" stroke="none" 
	d="
M615.588074,281.131958 
	C615.536926,282.070007 615.067139,282.936890 614.296265,283.898865 
	C612.476624,284.490509 610.958130,284.987091 608.953003,285.727966 
	C608.466431,285.972229 608.006470,285.992676 608.005615,285.663940 
	C607.996033,284.896973 607.987183,284.458679 607.989929,284.007538 
	C608.001526,283.994659 608.022156,283.967682 608.296448,283.844055 
	C609.638123,282.845398 610.705444,281.970398 611.772827,281.095428 
	C612.905029,281.083893 614.037292,281.072357 615.588074,281.131958 
z"/>
<path fill="#5EFE6B" opacity="1.000000" stroke="none" 
	d="
M760.624268,273.108154 
	C761.290588,273.666809 761.541504,274.156342 761.891235,274.906738 
	C759.394775,275.032318 756.799438,274.897125 754.106262,274.418854 
	C756.075195,273.730225 758.142090,273.384613 760.624268,273.108154 
z"/>
<path fill="#5EFE6B" opacity="1.000000" stroke="none" 
	d="
M715.418884,288.982666 
	C715.035278,288.580353 715.012573,288.177277 714.981689,287.471313 
	C716.402039,286.790192 717.830383,286.411926 719.636108,286.108002 
	C718.602173,287.115540 717.190979,288.048737 715.418884,288.982666 
z"/>
<path fill="#5EFE6B" opacity="1.000000" stroke="none" 
	d="
M734.104004,286.431885 
	C735.091553,285.771179 736.194702,285.392212 737.655701,285.086426 
	C737.304443,287.033905 736.631897,288.997314 734.104004,286.431885 
z"/>
<path fill="#5EFE6B" opacity="1.000000" stroke="none" 
	d="
M748.086487,285.398254 
	C748.776672,284.772156 749.564575,284.398407 750.683411,284.096436 
	C750.070923,284.662323 749.127625,285.156464 748.086487,285.398254 
z"/>
<path fill="#5EFE6B" opacity="1.000000" stroke="none" 
	d="
M608.006470,285.992676 
	C608.006470,285.992676 608.466431,285.972229 608.695435,285.958557 
	C608.739563,286.489563 608.554749,287.034271 608.173706,287.794617 
	C607.810303,287.975555 607.643188,287.940887 607.305420,287.565308 
	C607.425354,286.813843 607.715881,286.403259 608.006470,285.992676 
z"/>
<path fill="#5EFE6B" opacity="1.000000" stroke="none" 
	d="
M575.947876,374.540100 
	C575.441345,374.644257 574.873474,374.511810 574.184326,374.096863 
	C574.670898,373.977448 575.278748,374.140472 575.947876,374.540100 
z"/>
<path fill="#5EFE6B" opacity="1.000000" stroke="none" 
	d="
M700.298401,323.814545 
	C700.215881,323.434998 700.337769,322.850006 700.722168,322.114197 
	C700.824036,322.511932 700.663452,323.060516 700.298401,323.814545 
z"/>
<path fill="#5EFE6B" opacity="1.000000" stroke="none" 
	d="
M712.349121,303.785767 
	C712.259460,303.417633 712.364136,302.845245 712.719971,302.116699 
	C712.828552,302.500854 712.686035,303.041168 712.349121,303.785767 
z"/>
<path fill="#5EFE6B" opacity="1.000000" stroke="none" 
	d="
M694.239136,333.795227 
	C694.164307,333.411041 694.301575,332.823029 694.704163,332.082031 
	C694.796692,332.483185 694.623901,333.037292 694.239136,333.795227 
z"/>
<path fill="#5EFE6B" opacity="1.000000" stroke="none" 
	d="
M709.306030,308.813904 
	C709.222351,308.436005 709.342346,307.853607 709.722168,307.118988 
	C709.824585,307.514313 709.667175,308.061859 709.306030,308.813904 
z"/>
<path fill="#5EFE6B" opacity="1.000000" stroke="none" 
	d="
M572.052612,362.208435 
	C572.312988,362.415344 572.599609,362.899292 572.818970,363.685059 
	C572.527466,363.486389 572.303162,362.985931 572.052612,362.208435 
z"/>
<path fill="#5EFE6B" opacity="1.000000" stroke="none" 
	d="
M692.511108,336.817383 
	C692.400635,336.462067 692.458801,335.900085 692.769775,335.200928 
	C692.908325,335.579376 692.794067,336.095032 692.511108,336.817383 
z"/>
<path fill="#5EFE6B" opacity="1.000000" stroke="none" 
	d="
M703.585083,317.834991 
	C703.198425,317.653564 703.242432,317.390839 703.787354,317.088318 
	C703.977173,317.262085 703.886292,317.497131 703.585083,317.834991 
z"/>
<path fill="#5EFE6B" opacity="1.000000" stroke="none" 
	d="
M714.409302,299.872864 
	C714.337769,299.703217 714.423401,299.414581 714.763428,299.119934 
	C714.915955,299.361481 714.765564,299.574768 714.409302,299.872864 
z"/>
<path fill="#5EFE6B" opacity="1.000000" stroke="none" 
	d="
M702.426331,319.874268 
	C702.353088,319.706726 702.439087,319.420624 702.777832,319.119507 
	C702.933228,319.356506 702.784912,319.573547 702.426331,319.874268 
z"/>
<path fill="#5EFE6B" opacity="1.000000" stroke="none" 
	d="
M711.402100,304.865845 
	C711.330383,304.701202 711.413696,304.411743 711.749817,304.105469 
	C711.902893,304.339417 711.754395,304.556885 711.402100,304.865845 
z"/>
<path fill="#5EFE6B" opacity="1.000000" stroke="none" 
	d="
M717.457520,294.885315 
	C717.383057,294.711212 717.467407,294.431732 717.802368,294.157471 
	C717.958862,294.404785 717.813293,294.610565 717.457520,294.885315 
z"/>
<path fill="#5EFE6B" opacity="1.000000" stroke="none" 
	d="
M718.373291,293.983093 
	C718.272644,293.892212 718.295715,293.721924 718.439148,293.323914 
	C718.722168,293.379822 718.701355,293.648956 718.373291,293.983093 
z"/>
<path fill="#5EFE6B" opacity="1.000000" stroke="none" 
	d="
M708.401978,309.866760 
	C708.331970,309.702515 708.421143,309.410156 708.765991,309.093903 
	C708.917297,309.326691 708.763733,309.549591 708.401978,309.866760 
z"/>
<path fill="#5EFE6B" opacity="1.000000" stroke="none" 
	d="
M710.208008,440.367004 
	C710.340576,440.343750 710.663269,440.503387 711.118164,440.941223 
	C710.966248,440.996246 710.682251,440.773041 710.208008,440.367004 
z"/>
<path fill="#5EFE6B" opacity="1.000000" stroke="none" 
	d="
M671.039307,437.578979 
	C672.206177,437.326050 673.413025,437.401306 674.796875,437.796753 
	C673.536316,440.635681 672.230469,440.708099 671.039307,437.578979 
z"/>
<path fill="#5EFE6B" opacity="1.000000" stroke="none" 
	d="
M670.978638,444.642487 
	C669.890625,444.066071 668.779846,443.138306 667.359741,442.149536 
	C669.802917,440.250671 670.518921,442.023529 670.978638,444.642487 
z"/>
<path fill="#5EFE6B" opacity="1.000000" stroke="none" 
	d="
M663.800903,442.874634 
	C663.241089,443.389587 662.457214,443.712402 661.331421,443.987427 
	C661.851990,443.520599 662.714417,443.101532 663.800903,442.874634 
z"/>
<path fill="#5EFE6B" opacity="1.000000" stroke="none" 
	d="
M662.299133,438.302124 
	C662.808044,437.744202 663.559265,437.349640 664.655457,436.924866 
	C664.180786,437.418274 663.361084,437.941895 662.299133,438.302124 
z"/>
<path fill="#5EFE6B" opacity="1.000000" stroke="none" 
	d="
M672.924255,447.754395 
	C672.353760,447.266174 671.773193,446.438141 671.100952,445.303741 
	C671.644287,445.803101 672.279236,446.608826 672.924255,447.754395 
z"/>
<path fill="#5EFE6B" opacity="1.000000" stroke="none" 
	d="
M673.820190,448.866150 
	C673.667114,448.895752 673.362793,448.727112 672.977417,448.299744 
	C673.186646,448.209503 673.444214,448.418457 673.820190,448.866150 
z"/>
<path fill="#5EFE6B" opacity="1.000000" stroke="none" 
	d="
M525.725708,417.179932 
	C525.772339,417.398834 525.546692,417.586426 525.108887,417.860870 
	C524.992920,417.631012 525.178528,417.364655 525.725708,417.179932 
z"/>
<path fill="#5EFE6B" opacity="1.000000" stroke="none" 
	d="
M503.167419,301.355347 
	C502.745850,301.094269 502.446014,300.553040 502.070862,299.547668 
	C502.426758,299.747406 502.857971,300.411316 503.167419,301.355347 
z"/>
<path fill="#5EFE6B" opacity="1.000000" stroke="none" 
	d="
M500.715851,296.683899 
	C500.488831,296.487610 500.281097,296.008240 500.053955,295.263763 
	C500.268066,295.466034 500.501587,295.933411 500.715851,296.683899 
z"/>
<path fill="#5EFE6B" opacity="1.000000" stroke="none" 
	d="
M554.659546,290.042297 
	C554.602295,290.930878 554.437256,292.065216 553.789307,292.538635 
	C551.633484,294.113739 549.304199,295.451416 546.698242,296.929993 
	C546.277710,296.823395 546.200439,296.666809 546.053223,296.061859 
	C545.663635,295.381104 545.343994,295.148712 545.024414,294.916290 
	C543.947021,294.940369 542.869629,294.964447 541.393982,294.916382 
	C541.616760,293.163239 542.237732,291.482269 542.927063,289.471527 
	C545.854675,289.164734 548.713928,289.187683 551.818604,289.746063 
	C552.379639,290.234192 552.695374,290.186890 553.011108,290.139618 
	C553.450867,290.088196 553.890686,290.036743 554.659546,290.042297 
z"/>
<path fill="#5EFE6B" opacity="1.000000" stroke="none" 
	d="
M545.104248,295.161774 
	C545.343994,295.148712 545.663635,295.381104 545.991455,295.807312 
	C545.727783,295.803162 545.455872,295.605194 545.104248,295.161774 
z"/>
<path fill="#5EFE6B" opacity="1.000000" stroke="none" 
	d="
M473.105042,285.478699 
	C476.148346,285.216156 479.340942,285.279663 482.765442,285.694977 
	C479.660767,289.545441 476.441650,288.314301 473.105042,285.478699 
z"/>
<path fill="#5EFE6B" opacity="1.000000" stroke="none" 
	d="
M608.005615,285.663940 
	C607.715881,286.403259 607.425354,286.813843 607.067627,287.470703 
	C605.146790,287.658630 603.293091,287.600220 601.237671,287.200928 
	C601.873047,286.041901 602.710083,285.223816 604.173523,284.200195 
	C605.859375,284.003265 606.918884,284.011841 607.978333,284.020386 
	C607.987183,284.458679 607.996033,284.896973 608.005615,285.663940 
z"/>
<path fill="#5EFE6B" opacity="1.000000" stroke="none" 
	d="
M558.076660,279.513367 
	C560.496155,279.237762 563.022034,279.307068 565.769165,279.725586 
	C563.300232,283.168701 560.711304,282.607941 558.076660,279.513367 
z"/>
<path fill="#5EFE6B" opacity="1.000000" stroke="none" 
	d="
M498.064545,276.517029 
	C500.163177,276.239868 502.360992,276.303802 504.775269,276.713379 
	C502.619843,280.250092 500.361511,279.583038 498.064545,276.517029 
z"/>
<path fill="#5EFE6B" opacity="1.000000" stroke="none" 
	d="
M607.989929,284.007507 
	C606.918884,284.011841 605.859375,284.003265 604.402405,283.994537 
	C603.352539,283.273651 602.700195,282.552948 602.020996,281.513184 
	C603.710632,281.157898 605.427246,281.121643 607.579468,281.418396 
	C608.017517,282.490112 608.019836,283.228912 608.022156,283.967682 
	C608.022156,283.967682 608.001526,283.994659 607.989929,284.007507 
z"/>
<path fill="#5EFE6B" opacity="1.000000" stroke="none" 
	d="
M452.255035,276.883667 
	C452.212952,276.714661 452.352020,276.420135 452.750214,276.109375 
	C452.857330,276.348480 452.666290,276.570129 452.255035,276.883667 
z"/>
<path fill="#5EFE6B" opacity="1.000000" stroke="none" 
	d="
M552.769897,290.072083 
	C552.695374,290.186890 552.379639,290.234192 552.050415,290.094971 
	C552.200806,289.940460 552.364746,289.972504 552.769897,290.072083 
z"/>
<path fill="#5EFE6B" opacity="1.000000" stroke="none" 
	d="
M535.504211,418.496460 
	C535.508667,418.510101 535.499756,418.482819 535.504211,418.496460 
z"/>
<path fill="#5EFE6B" opacity="1.000000" stroke="none" 
	d="
M608.296448,283.844055 
	C608.019836,283.228912 608.017517,282.490112 608.007812,281.381653 
	C608.031189,279.928101 608.061890,278.844208 608.184082,277.363800 
	C609.171509,276.966614 610.067566,276.965973 611.299683,276.967041 
	C611.691589,278.067810 611.747437,279.166870 611.788086,280.680664 
	C610.705444,281.970398 609.638123,282.845398 608.296448,283.844055 
z"/>
<path fill="#5EFE6B" opacity="1.000000" stroke="none" 
	d="
M513.185425,602.374634 
	C515.373962,604.505615 517.533142,606.997192 519.828857,609.801758 
	C517.695679,607.654907 515.425903,605.195068 513.185425,602.374634 
z"/>
<path fill="#5EFE6B" opacity="1.000000" stroke="none" 
	d="
M705.620850,276.097107 
	C704.511230,279.947723 702.019897,279.526886 699.111084,277.413940 
	C701.073364,276.721832 703.140564,276.369171 705.620850,276.097107 
z"/>
<path fill="#5EFE6B" opacity="1.000000" stroke="none" 
	d="
M595.583374,502.077820 
	C599.808228,502.610229 603.571411,503.050507 608.097168,503.289764 
	C610.558411,503.088745 612.257080,503.088745 615.112305,503.088745 
	C612.648987,504.901978 611.339783,505.865662 609.575073,506.917816 
	C605.410156,506.978363 601.700684,506.950439 597.883301,506.585754 
	C594.374084,504.222992 591.529358,505.265472 588.504150,507.904663 
	C581.995544,508.972839 575.981628,507.218842 569.725159,508.763092 
	C560.550293,511.027710 550.999390,511.904541 541.557983,512.884521 
	C537.904541,513.263733 537.846741,515.132446 537.663086,517.818726 
	C537.461731,520.763306 538.254639,522.655029 541.412170,522.970764 
	C558.111267,524.640320 574.779968,527.130798 591.518677,527.765320 
	C615.976990,528.692505 640.488159,528.042603 664.719055,523.920593 
	C672.151672,522.656250 679.423523,520.446960 686.768982,518.670349 
	C686.661377,518.291138 686.553772,517.911987 686.446167,517.532776 
	C685.302795,516.968079 684.159363,516.403320 683.039978,515.502319 
	C683.709717,513.772583 684.355469,512.379150 685.001160,510.985779 
	C689.677612,512.438843 691.015991,516.057373 691.022400,520.444946 
	C691.040771,532.897034 691.266968,545.356384 690.915405,557.798889 
	C690.614380,568.448853 686.181702,576.803833 675.344238,580.552368 
	C674.606323,578.734009 674.220215,577.333801 674.004639,575.624146 
	C681.514709,571.952942 687.087524,566.560242 687.638489,558.442871 
	C688.410095,547.075623 687.833252,535.616882 687.833252,523.961426 
	C668.270569,530.801270 648.243164,532.654541 627.857056,532.570007 
	C624.332458,530.110413 621.457275,530.871826 618.518066,533.890503 
	C612.375671,533.914062 606.696045,533.873474 600.843872,533.507690 
	C597.333618,532.471741 594.020996,531.487915 590.646362,531.176453 
	C589.169067,531.040039 587.564880,532.277832 585.553955,532.956360 
	C573.773193,532.030396 562.447632,531.131042 551.144592,530.005188 
	C546.409912,529.533569 541.723083,528.581604 537.030029,527.890442 
	C537.045654,527.932861 537.082764,528.015198 536.931946,527.657959 
	C532.294556,525.895142 527.807983,524.489502 523.249939,523.061462 
	C523.047058,551.656067 521.440002,561.838501 527.149902,565.940002 
	C526.883911,564.067505 526.665527,562.529907 526.813660,561.003052 
	C529.484619,561.560181 531.789062,562.106689 533.358215,562.478821 
	C535.144348,560.286560 536.483337,558.643066 537.976318,557.361694 
	C539.108032,561.958984 540.085815,566.194336 541.186523,570.962036 
	C537.526978,570.962036 534.634949,570.962036 530.269836,570.962036 
	C534.356201,573.457825 537.191711,575.189636 539.877258,577.249329 
	C539.476440,578.987427 539.225586,580.397644 538.974792,581.807861 
	C525.909363,577.446533 519.400574,568.237183 519.907837,554.268433 
	C520.312622,543.123840 519.707520,531.942017 520.136536,520.799255 
	C520.292358,516.752502 522.698181,512.829773 523.131104,508.750122 
	C525.555542,485.902527 532.705322,466.561249 546.531738,447.198364 
	C548.404968,447.701355 550.428467,448.177063 552.409607,448.789856 
	C557.426331,450.341583 558.403992,452.160645 555.589783,456.358795 
	C547.607056,468.267303 543.843140,481.781342 540.284058,495.374695 
	C539.343689,498.966431 539.140442,502.751190 538.647644,506.113159 
	C557.831177,504.711121 576.476440,503.348419 595.583374,502.077820 
M531.160767,568.510620 
	C530.701538,568.235413 530.242249,567.960205 529.782959,567.684998 
	C529.669006,568.108337 529.554993,568.531677 529.441040,568.955017 
	C529.968201,568.959717 530.495300,568.964355 531.160767,568.510620 
z"/>
<path fill="#5EFE6B" opacity="1.000000" stroke="none" 
	d="
M673.834167,575.933655 
	C674.220215,577.333801 674.606323,578.734009 674.981995,580.514404 
	C666.380188,583.265869 657.892578,586.188599 649.164001,587.831116 
	C642.379333,589.107849 634.964050,587.608582 628.416199,589.441040 
	C617.179199,592.585815 605.968628,590.994629 594.856262,590.768921 
	C581.666321,590.500977 568.517029,588.226685 555.126221,586.126709 
	C554.597229,583.976807 554.292175,582.521973 554.407349,581.040527 
	C557.731934,581.387756 560.628601,581.841858 563.541992,582.121887 
	C577.143555,583.429199 590.728210,585.252502 604.361572,585.771851 
	C613.875061,586.134277 623.557617,585.339355 632.985474,583.893433 
	C646.686401,581.792175 660.225830,578.638489 673.834167,575.933655 
z"/>
<path fill="#5EFE6B" opacity="1.000000" stroke="none" 
	d="
M684.818481,510.657410 
	C684.355469,512.379150 683.709717,513.772583 682.663147,515.435791 
	C671.841492,513.735840 661.420654,511.766022 651.033997,509.455933 
	C651.711243,507.447083 652.354309,505.778564 652.997375,504.110046 
	C663.543518,506.183014 674.089600,508.256012 684.818481,510.657410 
z"/>
<path fill="#5EFE6B" opacity="1.000000" stroke="none" 
	d="
M652.574585,504.039490 
	C652.354309,505.778564 651.711243,507.447083 650.610229,509.511536 
	C645.111694,509.209961 640.070984,508.512451 634.992554,507.457001 
	C634.631348,505.460236 634.307983,503.821411 633.984619,502.182617 
	C640.040283,502.778076 646.096008,503.373505 652.574585,504.039490 
z"/>
<path fill="#5EFE6B" opacity="1.000000" stroke="none" 
	d="
M553.987122,581.067200 
	C554.292175,582.521973 554.597229,583.976807 554.913940,585.804932 
	C549.838928,584.827515 544.752258,583.476868 539.320190,581.967041 
	C539.225586,580.397644 539.476440,578.987427 540.270874,577.270447 
	C545.205322,578.331482 549.596191,579.699341 553.987122,581.067200 
z"/>
<path fill="#5EFE6B" opacity="1.000000" stroke="none" 
	d="
M610.030579,506.829346 
	C611.339783,505.865662 612.648987,504.901978 615.112305,503.088745 
	C612.257080,503.088745 610.558411,503.088745 608.457031,503.098999 
	C608.018494,502.697235 607.982727,502.285156 607.934937,501.564148 
	C612.451599,501.305389 616.980164,501.355621 621.717712,502.067566 
	C622.433472,503.496490 622.881836,504.311493 623.461243,505.019196 
	C624.259827,505.994415 625.157471,506.888550 625.551025,507.892151 
	C620.069763,507.587738 615.050171,507.208527 610.030579,506.829346 
z"/>
<path fill="#5EFE6B" opacity="1.000000" stroke="none" 
	d="
M626.012634,507.817413 
	C625.157471,506.888550 624.259827,505.994415 623.461243,505.019196 
	C622.881836,504.311493 622.433472,503.496490 621.948486,502.427551 
	C625.671387,502.098022 629.372437,502.070251 633.529053,502.112549 
	C634.307983,503.821411 634.631348,505.460236 634.549316,507.550476 
	C631.433472,507.940399 628.723022,507.878906 626.012634,507.817413 
z"/>
<path fill="#5EFE6B" opacity="1.000000" stroke="none" 
	d="
M526.738342,580.136963 
	C526.961731,580.252991 526.559937,580.339539 526.559937,580.339539 
	C526.559937,580.339539 526.198914,580.168335 526.107422,580.061768 
	C526.182251,579.977112 526.348633,579.999084 526.738342,580.136963 
z"/>
<path fill="#5EFE6B" opacity="1.000000" stroke="none" 
	d="
M710.946777,291.313293 
	C711.141968,291.171753 711.409912,291.330597 711.819336,291.700500 
	C711.676880,291.761841 711.363159,291.662506 710.946777,291.313293 
z"/>
<path fill="#5EFE6B" opacity="1.000000" stroke="none" 
	d="
M562.424805,295.950562 
	C563.301636,293.419708 564.898560,293.349335 566.869568,295.594452 
	C565.602722,295.946198 564.219299,295.979980 562.424805,295.950562 
z"/>
<path fill="#5EFE6B" opacity="1.000000" stroke="none" 
	d="
M537.030029,527.890442 
	C537.011902,534.917297 537.009338,541.986511 537.023499,549.769653 
	C537.183594,550.951172 537.326965,551.418701 537.470337,551.886292 
	C537.629028,553.306396 537.787720,554.726440 537.884399,556.573120 
	C536.483337,558.643066 535.144348,560.286560 533.358215,562.478821 
	C531.789062,562.106689 529.484619,561.560181 526.678589,560.592834 
	C524.766968,548.941956 523.905273,537.700623 524.381592,526.456665 
	C529.330505,527.063965 533.206665,527.539612 537.082764,528.015198 
	C537.082764,528.015198 537.045654,527.932861 537.030029,527.890442 
z"/>
<path fill="#5EFE6B" opacity="1.000000" stroke="none" 
	d="
M600.843872,533.507690 
	C596.174988,533.757019 591.333496,533.681274 586.255188,533.248535 
	C587.564880,532.277832 589.169067,531.040039 590.646362,531.176453 
	C594.020996,531.487915 597.333618,532.471741 600.843872,533.507690 
z"/>
<path fill="#5EFE6B" opacity="1.000000" stroke="none" 
	d="
M627.857056,532.570007 
	C625.270020,533.264282 622.558350,533.623657 619.413757,533.904663 
	C621.457275,530.871826 624.332458,530.110413 627.857056,532.570007 
z"/>
<path fill="#5EFE6B" opacity="1.000000" stroke="none" 
	d="
M597.883301,506.585754 
	C595.271606,507.284271 592.552002,507.646027 589.398193,507.927643 
	C591.529358,505.265472 594.374084,504.222992 597.883301,506.585754 
z"/>
<path fill="#5EFE6B" opacity="1.000000" stroke="none" 
	d="
M531.091614,568.739807 
	C530.495300,568.964355 529.968201,568.959717 529.441040,568.955017 
	C529.554993,568.531677 529.669006,568.108337 529.782959,567.684998 
	C530.242249,567.960205 530.701538,568.235413 531.091614,568.739807 
z"/>
<path fill="#5EFE6B" opacity="1.000000" stroke="none" 
	d="
M537.566895,551.629639 
	C537.326965,551.418701 537.183594,550.951172 537.021606,550.237793 
	C537.223083,550.452332 537.443298,550.912720 537.566895,551.629639 
z"/>
</svg>